<?xml version="1.0" encoding="utf-8"?>
<svg height="128" width="128" xmlns="http://www.w3.org/2000/svg">
  <rect x="2" y="2" width="124" height="124" rx="14" fill="#363d52" stroke="#212532" stroke-width="4"/>
  <g transform="scale(.101) translate(122 122)">
    <g fill="#fff">
      <path d="M105 673v33q407 354 814 0v-33z"/>
      <path fill="#478cbf" d="m105 673 152 14q12 1 15 14l4 67 132 10 8-61q2-11 15-15h162q13 4 15 15l8 61 132-10 4-67q3-13 15-14l152-14V427q30-39 56-81-35-59-83-108-43 20-82 47-40-37-88-64 7-51 8-102-59-28-123-42-26 43-46 89-49-7-98 0-20-46-46-89-64 14-123 42 1 51 8 102-48 27-88 64-39-27-82-47-48 49-83 108 26 42 56 81zm0 33v39c0 276 813 276 813 0v-39l-134 12-5 69q-2 10-14 13l-162 11q-12 0-16-11l-10-65H447l-10 65q-4 11-16 11l-162-11q-12-3-14-13l-5-69z"/>
      <path d="M483 600c3 34 55 34 58 0v-86c-3-34-55-34-58 0z"/>
      <circle cx="725" cy="526" r="90"/>
      <circle cx="299" cy="526" r="90"/>
    </g>
    <g fill="#414042">
      <circle cx="307" cy="532" r="60"/>
      <circle cx="717" cy="532" r="60"/>
    </g>
  </g>
  <path style="fill: rgb(216, 216, 216); stroke: rgb(0, 0, 0);" d="M 80.206 14.489 C 79.942 14.665 79.747 14.942 79.463 15.084 C 79.33 15.15 78.873 15.048 79.017 15.084 C 82.049 15.842 85.431 16.152 88.532 16.422 C 96.649 17.128 105.167 16.016 113.213 17.165"/>
  <path style="fill: rgb(216, 216, 216); stroke: rgb(0, 0, 0);" d="M 108.307 12.854 C 109.84 13.365 110.662 14.805 111.429 15.827 C 112.113 16.739 113.179 17.525 114.254 17.909 C 114.845 18.12 116.038 17.877 116.038 18.504 C 116.038 19.084 113.946 19.7 113.511 19.99 C 111.74 21.171 110.175 23.033 108.307 24.153 C 107.498 24.639 105.627 24.752 105.036 25.343"/>
</svg>